<?xml version="1.0" encoding="UTF-8"?>
<svg id="Calque_1" data-name="Calque 1" xmlns="http://www.w3.org/2000/svg" viewBox="0 0 1024 512">
  <text font-family="Montserrat-Bold, Montserrat" font-size="140.98px" font-weight="800" transform="translate(245.51 299.89)">
    <tspan fill="#5e17eb" x="0" y="0">Bee</tspan>
    <tspan fill="#f8ac11" x="251.31" y="0">Hi</tspan>
    <tspan fill="#f8ac11" x="388.81" y="0">v</tspan>
    <tspan fill="#f8ac11" x="461.09" y="0">e</tspan>
  </text>
  <path fill="#5e17eb" d="M233.44,209.8c.52.22,1.06.44,1.63.42s1.16-.35,1.31-.89c.1-.34,0-.7-.08-1.05-.49-1.93-1-3.91-2.11-5.57-.75-1.12-1.76-2.06-2.66-3.07-1.73-1.95-3.1-4.22-5.06-5.93s-4.82-2.77-7.19-1.7c-1.58.71-3.86,3.32-3.83,5.19s3.29,3.73,4.69,4.81c4.07,3.15,8.55,5.78,13.29,7.79Z"/>
  <path fill="#5e17eb" d="M230.82,217.43c.43,1.88-1,3.8-2.79,4.54s-3.8.59-5.72.36c-4.05-.5-8.06-1.34-11.97-2.5-.84-.25-1.74-.56-2.21-1.3-.38-.61-.38-1.39-.27-2.1.31-1.99,1.48-4.09,3.17-5.24,1.95-1.31,3.47,0,5.36.91,4.63,2.22,9.46,4.01,14.42,5.33Z"/>
  <path fill="#5e17eb" d="M239.12,182.49c.01-.43.04-.89.29-1.24.2-.29.53-.47.85-.62,1.42-.67,2.99-1.03,4.57-1.05.61,0,1.24.04,1.76.34.67.39,1.06,1.12,1.38,1.82,1.76,3.85,2.68,8.09,2.67,12.33,0,2.24-.28,4.52-1.27,6.54-.63,1.28-2.84,4.45-4.63,3.9-1.63-.5-2.71-4.99-3.2-6.41-1.73-5-2.56-10.32-2.41-15.61Z"/>
  <path fill="#f8ac11" d="M795.94,231.71c-.24.51-.48,1.04-.49,1.61s.3,1.17.83,1.35c.34.11.7.04,1.05-.03,1.95-.41,3.95-.83,5.66-1.87,1.16-.71,2.13-1.67,3.18-2.53,2.02-1.64,4.35-2.91,6.15-4.8s2.97-4.7,2.01-7.11c-.64-1.61-3.15-4-5.02-4.05s-3.87,3.13-5.01,4.49c-3.32,3.94-6.14,8.3-8.35,12.96Z"/>
  <path fill="#f8ac11" d="M788.43,228.77c-1.9.35-3.75-1.17-4.42-2.98s-.43-3.82-.11-5.73c.68-4.03,1.68-8,3.01-11.86.28-.83.64-1.72,1.4-2.15.63-.36,1.41-.32,2.11-.18,1.97.4,4.03,1.65,5.1,3.39,1.23,2-.15,3.47-1.14,5.32-2.42,4.53-4.41,9.29-5.95,14.19Z"/>
  <path fill="#f8ac11" d="M823.01,238.55c.43.03.89.08,1.23.34.28.22.44.55.58.88.61,1.45.9,3.04.85,4.61-.02.61-.09,1.23-.42,1.74-.42.66-1.16,1.01-1.88,1.3-3.93,1.6-8.2,2.33-12.43,2.14-2.24-.1-4.51-.48-6.48-1.55-1.25-.68-4.33-3.03-3.7-4.8.57-1.61,5.1-2.5,6.55-2.93,5.07-1.52,10.42-2.12,15.71-1.75Z"/>
</svg>
